<?xml version="1.0" encoding="UTF-8"?>
<svg width="242px" height="100px" viewBox="0 0 242 100" version="1.1" xmlns="http://www.w3.org/2000/svg" xmlns:xlink="http://www.w3.org/1999/xlink">
    <!-- Generator: Sketch 50.2 (55047) - http://www.bohemiancoding.com/sketch -->
    <title>Group 7</title>
    <desc>Created with Sketch.</desc>
    <defs></defs>
    <g id="Page-1" stroke="none" stroke-width="1" fill="none" fill-rule="evenodd">
        <g id="01-Home" transform="translate(-48.000000, -48.000000)">
            <g id="Group-7" transform="translate(48.000000, 48.000000)">
                <text id="Selbst" font-family="HKGrotesk-Light, HK Grotesk" font-size="48" font-weight="300" fill="#FFFFFF">
                    <tspan x="120" y="77">Selbst</tspan>
                </text>
                <path d="M57.5451671,51.6025641 L59.9358974,55.7692308 L55.1282051,55.7692308 L57.5451671,51.6025641 Z M70.5128205,38.1410256 L60.8449688,55.1282051 L51.2820513,38.1410256 L70.5128205,38.1410256 Z M50.173371,51.6025641 L52.5641026,55.7692308 L47.7564103,55.7692308 L50.173371,51.6025641 Z M39.155136,19.8717949 L48.7179487,36.8589744 L29.4871795,36.8589744 L39.155136,19.8717949 Z M48.7179487,38.1410256 L39.050097,55.1282051 L29.4871795,38.1410256 L48.7179487,38.1410256 Z M59.6153846,18.9102564 L49.9475329,35.8974359 L40.3846154,18.9102564 L59.6153846,18.9102564 Z M50.1734791,38.7820513 L52.5641026,42.9487179 L47.7564103,42.9487179 L50.1734791,38.7820513 Z M48.7179487,50.9615385 L46.3008799,55.1282051 L43.9102564,50.9615385 L48.7179487,50.9615385 Z M50.0524671,0.641025641 L59.6153846,17.6282051 L40.3846154,17.6282051 L50.0524671,0.641025641 Z M42.8014692,51.6025641 L45.1923077,55.7692308 L40.3846154,55.7692308 L42.8014692,51.6025641 Z M28.2575953,38.7820513 L37.8205128,55.7692308 L18.5897436,55.7692308 L28.2575953,38.7820513 Z M53.6987982,45.1923077 L56.0897436,49.3589744 L51.2820513,49.3589744 L53.6987982,45.1923077 Z M46.3272172,45.1923077 L48.7179487,49.3589744 L43.9102564,49.3589744 L46.3272172,45.1923077 Z M52.5641026,44.5512821 L50.1473556,48.7179487 L47.7564103,44.5512821 L52.5641026,44.5512821 Z M56.0897436,50.9615385 L53.6727816,55.1282051 L51.2820513,50.9615385 L56.0897436,50.9615385 Z M14.5342139,85.3296075 C11.8041609,82.590936 9.39593835,79.5485341 7.37179487,76.2820513 L92.3076923,76.2820513 C90.2833371,79.5485341 87.8751145,82.5905112 85.1456968,85.3289703 C75.7150091,94.78943 63.1761178,99.9995752 49.8390025,100 C36.5027342,99.9995752 23.9646898,94.7896424 14.5342139,85.3296075 Z M17.0397514,58.0128205 L26.6025641,75 L7.37179487,75 L17.0397514,58.0128205 Z M82.7448796,58.0128205 L92.3076923,75 L73.0769231,75 L82.7448796,58.0128205 Z M14.6741467,14.6208449 C23.8676366,5.45158906 36.0586296,0.268044938 49.0384615,0 L6.17962798,74.0384615 C2.13536772,66.7249667 0,58.4062503 0,49.9540412 C0,36.6068865 5.21126602,24.0587813 14.6741467,14.6208449 Z M85.3767104,14.6140338 C94.8063715,24.0530322 99.9995766,36.6026891 100,49.9515211 C99.9997883,58.4042131 97.8716095,66.724663 93.8422125,74.0384615 L51.6025641,0 C64.3536408,0.382315568 76.3349146,5.56328491 85.3767104,14.6140338 Z M51.2820513,36.8589744 L60.949903,19.8717949 L70.5128205,36.8589744 L51.2820513,36.8589744 Z M59.6153846,57.3717949 L49.9475329,74.3589744 L40.3846154,57.3717949 L59.6153846,57.3717949 Z M60.949903,58.0128205 L70.5128205,75 L51.2820513,75 L60.949903,58.0128205 Z M28.1525563,74.3589744 L22.8818839,64.9965848 L18.5897436,57.3717949 L37.8205128,57.3717949 L28.1525563,74.3589744 Z M39.155136,58.0128205 L48.7179487,75 L29.4871795,75 L39.155136,58.0128205 Z M71.847233,38.7820513 L81.4102564,55.7692308 L62.1794872,55.7692308 L71.847233,38.7820513 Z M81.4102564,57.3717949 L71.7422999,74.3589744 L62.1794872,57.3717949 L81.4102564,57.3717949 Z" id="Combined-Shape" fill="#FAFE8D"></path>
            </g>
        </g>
    </g>
</svg>